<?xml version="1.0" encoding="UTF-8"?>
<svg id="Layer_2" data-name="Layer 2" xmlns="http://www.w3.org/2000/svg" viewBox="0 0 558.87 59.79">
  <g id="Layer_2-2" data-name="Layer 2">
    <g>
      <polygon points="487.97 23.18 487.97 37.26 540.79 37.26 540.79 42.56 487.97 42.56 487.97 59.79 558.87 59.79 558.87 42.56 558.86 42.56 558.86 37.26 558.87 37.26 558.87 23.18 506.09 23.18 506.09 17.26 558.87 17.26 558.87 .03 487.97 .03 487.97 17.26 487.97 23.18"/>
      <polygon points="70.86 .21 59.44 .21 59.44 .18 39.4 .18 39.4 36.57 29.28 59.37 29.35 46.43 29.38 46.48 29.38 35.01 29.46 .18 10.83 .18 10.83 .21 0 .21 10.87 17.51 11 59.68 49.67 59.68 59.44 38.94 59.44 18.39 70.86 .21"/>
      <polygon points="127 18.9 127 .17 75.76 .17 64 18.9 64 18.9 64 44.07 63.99 59.76 126.99 59.76 127 41.03 86.13 41.03 86.13 37.2 116.88 37.2 116.88 22.73 86.13 22.73 86.13 18.9 127 18.9"/>
      <polygon points="262.05 18.9 262.05 .17 210.81 .17 199.04 18.9 199.04 18.9 199.04 44.07 199.03 59.76 262.03 59.76 262.05 41.03 221.17 41.03 221.17 37.2 251.93 37.2 251.93 22.73 221.17 22.73 221.17 18.9 262.05 18.9"/>
      <polygon points="131.57 .17 131.6 18.9 152.08 18.9 152.08 59.76 163.88 59.76 174.22 59.71 174.22 18.9 192.27 18.9 204.39 .17 131.57 .17"/>
      <path d="M336.25,22.99c0-13.28-9.28-22.81-22.81-22.81h-24.69l.03,18.73h20.4c2.21,0,4.94,0,4.94,4.09s-2.72,4.09-4.94,4.09h-20.43v-8.17h.03L277.02,.17h-10.4V59.76h22.13v-13.96h13.02l8.26,13.96h26.22l-10.56-17.11c6.55-3.83,10.56-10.98,10.56-19.66Z"/>
      <polygon points="469.5 .13 412.49 .13 412.49 22.25 412.5 22.25 412.5 59.76 424.23 59.76 434.62 59.76 434.62 22.25 461.27 22.25 461.27 59.76 483.39 59.76 483.39 22.24 469.5 .13"/>
      <polygon points="406.77 0 406.77 0 363.11 0 363.11 22.25 385.67 22.25 385.67 34.41 363.1 34.41 363.1 22.25 363.1 22.25 349.13 0 347.01 0 347.01 0 340.85 0 340.85 59.76 363.1 59.76 363.1 44.97 385.67 44.97 385.67 59.76 407.92 59.76 407.92 0 406.77 0"/>
    </g>
  </g>
</svg>